<svg width="12" height="10" viewBox="0 0 12 10" fill="none" xmlns="http://www.w3.org/2000/svg">
<path d="M7.3943 8.585C6.93188 9.38594 6.70067 9.78641 6.39715 9.91775C6.14374 10.0274 5.85626 10.0274 5.60285 9.91775C5.29933 9.78641 5.06812 9.38594 4.6057 8.585L1.33212 2.915C0.8697 2.11406 0.638489 1.71359 0.6765 1.38506C0.708237 1.11077 0.851974 0.861813 1.07365 0.697183C1.33916 0.5 1.80158 0.5 2.72642 0.5L9.27358 0.5C10.1984 0.5 10.6608 0.5 10.9264 0.697183C11.148 0.861813 11.2918 1.11077 11.3235 1.38506C11.3615 1.71359 11.1303 2.11406 10.6679 2.915L7.3943 8.585Z" fill="white"/>
</svg>
