<svg width="14" height="14" viewBox="0 0 14 14" fill="none" xmlns="http://www.w3.org/2000/svg">
<g clip-path="url(#clip0_381_52)">
<rect width="14" height="14" rx="7" fill="#CF5D5D"/>
<path d="M3.09733 2.3475C3.5354 2.49589 3.95214 2.70102 4.33692 2.95766C4.88034 2.81878 5.43911 2.749 6 2.75C6.57925 2.75 7.13808 2.82233 7.66192 2.95708C8.04655 2.70069 8.46309 2.49575 8.90092 2.3475C9.3075 2.20925 9.88675 1.98525 10.2309 2.36616C10.4643 2.62516 10.5226 3.05916 10.564 3.3905C10.6107 3.76033 10.6218 4.24216 10.4993 4.7205C10.9677 5.32541 11.25 6.047 11.25 6.83333C11.25 8.0245 10.6048 9.05875 9.64992 9.77508C9.19036 10.1155 8.68066 10.3823 8.13908 10.5661C8.26392 10.8519 8.33333 11.1681 8.33333 11.5V13.25C8.33333 13.4047 8.27188 13.5531 8.16248 13.6625C8.05308 13.7719 7.90471 13.8333 7.75 13.8333H4.25C4.09529 13.8333 3.94692 13.7719 3.83752 13.6625C3.72813 13.5531 3.66667 13.4047 3.66667 13.25V12.6719C3.10958 12.7402 2.64233 12.6795 2.24509 12.5109C1.82975 12.3347 1.54042 12.0617 1.32283 11.8004C1.11633 11.5531 0.891168 10.9954 0.565668 10.8869C0.492971 10.8627 0.425753 10.8244 0.367853 10.7742C0.309952 10.724 0.262504 10.663 0.228216 10.5944C0.158968 10.456 0.14753 10.2958 0.196418 10.149C0.245306 10.0022 0.350516 9.88079 0.488902 9.81154C0.627288 9.74229 0.787515 9.73086 0.934335 9.77975C1.32283 9.90925 1.576 10.1892 1.74925 10.4144C2.02925 10.7761 2.25675 11.2486 2.70008 11.437C2.88267 11.5146 3.15042 11.5653 3.56925 11.5082L3.66667 11.4883C3.66778 11.1709 3.73389 10.857 3.86092 10.5661C3.31934 10.3823 2.80964 10.1155 2.35008 9.77508C1.39517 9.05875 0.750001 8.02508 0.750001 6.83333C0.750001 6.04816 1.03175 5.32716 1.499 4.72283C1.3765 4.2445 1.387 3.7615 1.43367 3.39108L1.43658 3.36891C1.47917 3.02941 1.52875 2.62983 1.76675 2.36616C2.11092 1.98525 2.69075 2.20983 3.09675 2.34808L3.09733 2.3475Z" fill="#1C1C1C"/>
</g>
<defs>
<clipPath id="clip0_381_52">
<rect width="14" height="14" rx="7" fill="white"/>
</clipPath>
</defs>
</svg>
