<svg width="25" height="25" viewBox="0 0 25 25" fill="none" xmlns="http://www.w3.org/2000/svg"><g clip-path="url(#clip0_239_104)"><path d="M8.59668 22.185C8.59717 22.4922 8.68799 22.7929 8.8584 23.0488L9.69287 24.3032C9.83542 24.5176 10.0288 24.6935 10.2557 24.8152C10.4827 24.9368 10.7362 25.0005 10.9937 25.0005H14.0068C14.2643 25.0005 14.5178 24.9368 14.7448 24.8152C14.9717 24.6935 15.1651 24.5176 15.3076 24.3032L16.1421 23.0488C16.3124 22.7929 16.4035 22.4924 16.4038 22.185L16.4058 20.3125H8.59424L8.59668 22.185ZM3.90625 8.59373C3.90625 10.7602 4.70947 12.7368 6.0332 14.2471C6.83984 15.1675 8.10156 17.0903 8.58252 18.7124C8.58447 18.7251 8.58594 18.7378 8.58789 18.7505H16.4121C16.4141 18.7378 16.4155 18.7256 16.4175 18.7124C16.8984 17.0903 18.1602 15.1675 18.9668 14.2471C20.2905 12.7368 21.0938 10.7602 21.0938 8.59373C21.0938 3.83836 17.2319 -0.0146678 12.4731 -1.94054e-05C7.49219 0.0151173 3.90625 4.05125 3.90625 8.59373ZM12.5 4.68748C10.3462 4.68748 8.59375 6.43992 8.59375 8.59373C8.59375 9.02537 8.24414 9.37498 7.8125 9.37498C7.38086 9.37498 7.03125 9.02537 7.03125 8.59373C7.03125 5.57811 9.48438 3.12498 12.5 3.12498C12.9316 3.12498 13.2812 3.47459 13.2812 3.90623C13.2812 4.33787 12.9316 4.68748 12.5 4.68748Z" fill="white"/></g>
<defs>
<clipPath id="clip0_239_104">
<rect width="25" height="25" fill="white"/>
</clipPath>
</defs>
</svg>
