<svg width="10" height="10" viewBox="0 0 10 10" fill="none" xmlns="http://www.w3.org/2000/svg">
<path d="M3.57123 3.0769H5.54767V4.16767H5.57624C5.85124 3.63614 6.52411 3.0769 7.52768 3.0769C9.61413 3.0769 9.99985 4.47537 9.99985 6.2946V9.99999H7.93912V6.71537C7.93912 5.93229 7.92412 4.92383 6.86768 4.92383C5.79482 4.92383 5.63053 5.77691 5.63053 6.65845V9.99999H3.57123V3.0769Z" fill="#1C1C1C"/>
<path d="M0 3.0769H2.14287V9.99999H0V3.0769Z" fill="#1C1C1C"/>
<path d="M2.14287 1.15385C2.14287 1.79077 1.66287 2.30769 1.07144 2.30769C0.480003 2.30769 0 1.79077 0 1.15385C0 0.516924 0.480003 0 1.07144 0C1.66287 0 2.14287 0.516924 2.14287 1.15385Z" fill="#1C1C1C"/>
</svg>
