<svg width="13" height="13" viewBox="0 0 13 13" fill="none" xmlns="http://www.w3.org/2000/svg">
<g clip-path="url(#clip0_381_31)">
<path fill-rule="evenodd" clip-rule="evenodd" d="M10.7125 2.39956C10.8464 2.34323 10.9929 2.3238 11.1368 2.34329C11.2807 2.36279 11.4168 2.42051 11.5308 2.51044C11.6449 2.60036 11.7327 2.71921 11.7852 2.85461C11.8378 2.99001 11.853 3.13701 11.8295 3.28031L10.601 10.732C10.4818 11.4508 9.69313 11.863 9.03392 11.505C8.48251 11.2054 7.66351 10.7439 6.92684 10.2624C6.55851 10.0214 5.43021 9.24948 5.56888 8.70023C5.68805 8.23061 7.58388 6.46586 8.66721 5.41665C9.09242 5.00444 8.89851 4.76665 8.39638 5.14581C7.14892 6.08723 5.14746 7.51886 4.48555 7.92186C3.90163 8.27719 3.59721 8.33786 3.23321 8.27719C2.56913 8.16669 1.95326 7.99552 1.45059 7.78698C0.771339 7.50532 0.804381 6.57148 1.45005 6.29956L10.7125 2.39956Z" fill="#1C1C1C"/>
</g>
<defs>
<clipPath id="clip0_381_31">
<rect width="13" height="13" fill="white"/>
</clipPath>
</defs>
</svg>
