<svg width="12" height="10" viewBox="0 0 12 10" fill="none" xmlns="http://www.w3.org/2000/svg">
<path fill-rule="evenodd" clip-rule="evenodd" d="M10.7125 0.399595C10.8464 0.343257 10.9929 0.323826 11.1368 0.343325C11.2807 0.362824 11.4168 0.42054 11.5308 0.510466C11.6448 0.600392 11.7327 0.71924 11.7852 0.85464C11.8377 0.99004 11.853 1.13704 11.8294 1.28035L10.6009 8.73205C10.4818 9.45085 9.6931 9.86305 9.03389 9.50501C8.48248 9.20547 7.66348 8.74397 6.92681 8.26243C6.55848 8.02139 5.43018 7.24951 5.56885 6.70026C5.68802 6.23064 7.58385 4.46589 8.66718 3.41668C9.09239 3.00447 8.89848 2.76668 8.39635 3.14585C7.14889 4.08726 5.14743 5.51889 4.48552 5.92189C3.9016 6.27722 3.59718 6.33789 3.23318 6.27722C2.5691 6.16672 1.95323 5.99555 1.45056 5.78701C0.771308 5.50535 0.80435 4.57151 1.45002 4.2996L10.7125 0.399595Z" fill="#F8F8F8"/>
</svg>
